<svg width="209" height="42" viewBox="0 0 209 42" fill="none" xmlns="http://www.w3.org/2000/svg">
<path d="M65.636 31.4242C69.1813 31.4242 72.5751 29.5455 74.0902 26.3638L70.4843 24.3336C69.5449 26.0911 67.9086 27.2122 65.4542 27.2122C62.03 27.2122 59.6059 24.5154 59.6059 20.8185C59.6059 17.1217 62.0603 14.4248 65.4542 14.4248C67.9086 14.4248 69.4843 15.546 70.4843 17.3035L74.0902 15.2733C72.5751 12.0915 69.1813 10.2128 65.636 10.2128C59.6968 10.2128 55.0606 14.9096 55.0606 20.8185C55.0606 26.7274 59.6968 31.4242 65.636 31.4242ZM75.8707 9.09164V31H80.1736V9.09164H75.8707ZM86.0759 13.7582C87.5304 13.7582 88.7121 12.5764 88.7121 11.0916C88.7121 9.63708 87.5304 8.425 86.0759 8.425C84.6214 8.425 83.4093 9.63708 83.4093 11.0916C83.4093 12.5764 84.6214 13.7582 86.0759 13.7582ZM83.9244 16.0005V31H88.2273V16.0005H83.9244ZM110.281 15.4551C107.584 15.4551 105.463 16.7278 104.523 18.7883C103.644 16.7278 101.554 15.4551 98.6749 15.4551C93.8266 15.4551 91.3721 18.9701 91.3721 23.1518V31H95.675V23.8487C95.675 21.5761 96.6143 19.6367 99.0082 19.6367C101.341 19.6367 102.341 21.5458 102.341 23.8487V31H106.644V23.8184C106.644 21.5458 107.644 19.6367 109.978 19.6367C112.341 19.6367 113.341 21.5761 113.341 23.879V31H117.644V23.1518C117.644 18.9701 115.159 15.4551 110.281 15.4551ZM126.866 31.3939C128.926 31.3939 130.563 30.5758 131.623 29.2425V31H135.714V23.4548C135.714 18.9398 132.259 15.546 127.563 15.546C122.957 15.546 119.442 19.1519 119.442 23.4548C119.442 27.8183 122.502 31.3939 126.866 31.3939ZM127.563 27.3638C125.351 27.3638 123.745 25.6062 123.745 23.4851C123.745 21.364 125.351 19.6064 127.563 19.6064C129.775 19.6064 131.411 21.364 131.411 23.4851C131.411 25.6062 129.775 27.3638 127.563 27.3638ZM151.08 31V22.8791H160.382V31H164.806V10.6067H160.382V18.8186H151.08V10.6067H146.656V31H151.08ZM175.664 31.3939C180.269 31.3939 183.815 27.8183 183.815 23.4548C183.815 19.1519 180.3 15.546 175.664 15.546C171.088 15.546 167.543 19.1216 167.543 23.4548C167.543 27.8183 171.058 31.3939 175.664 31.3939ZM175.664 27.3638C173.451 27.3638 171.845 25.6062 171.845 23.4851C171.845 21.364 173.451 19.6064 175.664 19.6064C177.876 19.6064 179.512 21.364 179.512 23.4851C179.512 25.6062 177.876 27.3638 175.664 27.3638ZM188.404 13.7582C189.858 13.7582 191.04 12.5764 191.04 11.0916C191.04 9.63708 189.858 8.425 188.404 8.425C186.949 8.425 185.737 9.63708 185.737 11.0916C185.737 12.5764 186.949 13.7582 188.404 13.7582ZM186.222 16.0005V31.6363C186.222 33.1211 185.283 34.1514 183.343 34.1514L183.586 38.2119C188.101 38.2119 190.525 35.5756 190.525 31.7879V16.0005H186.222ZM200.532 31.3939C203.713 31.3939 206.198 29.8485 207.501 27.1516L204.198 25.485C203.501 26.8789 202.138 27.6668 200.501 27.6668C198.35 27.6668 196.804 26.3335 196.501 24.3336H207.653V23.0609C207.653 18.9701 204.895 15.4551 200.138 15.4551C195.501 15.4551 192.35 19.0307 192.35 23.3639C192.35 28.1516 195.865 31.3939 200.532 31.3939ZM196.683 21.9397C196.986 20.4246 198.229 19.2125 200.107 19.2125C201.925 19.2125 203.198 20.3943 203.38 21.9397H196.683Z" fill="url(#paint0_linear_45_505)"/>
<path d="M28.787 9L20.575 17.1668L25.448 22.0398L28.787 18.701L38.1721 28.1311L43 23.2581L28.787 9ZM14.2581 13.8279L0 28.086L4.87303 32.9591L14.2581 23.574L23.6433 32.9591L28.5163 28.086L14.2583 13.8279H14.2581Z" fill="url(#paint1_linear_45_505)"/>
<defs>
<linearGradient id="paint0_linear_45_505" x1="54" y1="18.9724" x2="208.986" y2="21.7767" gradientUnits="userSpaceOnUse">
<stop stop-color="#007DFE"/>
<stop offset="1" stop-color="#3AA2FF"/>
</linearGradient>
<linearGradient id="paint1_linear_45_505" x1="7.35368e-09" y1="19.8229" x2="43.0068" y2="20.2013" gradientUnits="userSpaceOnUse">
<stop stop-color="#007DFE"/>
<stop offset="1" stop-color="#3AA2FF"/>
</linearGradient>
</defs>
</svg>
