<svg width="68" height="73" viewBox="0 0 68 73" fill="none" xmlns="http://www.w3.org/2000/svg">
<g filter="url(#filter0_i_44_430)">
<path d="M48.512 14.9727C48.6049 14.4468 48.6534 13.9058 48.6534 13.3536C48.6534 8.18774 44.4111 4 39.1779 4C35.2875 4 31.9447 6.31442 30.4854 9.62456C29.3032 8.617 27.7691 8.00868 26.0927 8.00868C22.3547 8.00868 19.3245 11.0332 19.3245 14.764C19.3245 14.9718 19.3339 15.1774 19.3523 15.3803C17.5544 16.2496 16.3164 18.0737 16.3164 20.1832C16.3164 23.1351 18.7406 25.5281 21.7309 25.5281H47.2998C50.2902 25.5281 52.7144 23.1351 52.7144 20.1832C52.7144 17.6426 50.9187 15.5161 48.512 14.9727Z" fill="url(#paint0_linear_44_430)"/>
</g>
<g filter="url(#filter1_f_44_430)">
<path d="M34.0392 12.0198C28.476 19.5732 27.5113 29.8815 32.4189 38.3816C37.3264 46.8817 46.736 51.2005 56.0591 50.1593C54.0767 52.8507 51.5105 55.1924 48.418 56.9779C36.6469 63.774 21.7085 59.9372 15.0522 48.4082C8.39599 36.8793 12.5424 22.0239 24.3136 15.2278C27.4061 13.4424 30.7172 12.3908 34.0392 12.0198Z" fill="#FFEE94"/>
</g>
<g filter="url(#filter2_i_44_430)">
<path d="M33.5205 15.2031C28.4422 22.0981 27.5616 31.5078 32.0414 39.267C36.5212 47.0262 45.1106 50.9685 53.6209 50.0181C51.8114 52.4749 49.4689 54.6125 46.646 56.2423C35.9009 62.446 22.2646 58.9437 16.1886 48.4197C10.1125 37.8957 13.8976 24.3352 24.6427 18.1315C27.4656 16.5017 30.488 15.5418 33.5205 15.2031Z" fill="url(#paint1_linear_44_430)"/>
</g>
<g filter="url(#filter3_b_44_430)">
<g filter="url(#filter4_i_44_430)">
<path d="M56.3645 55.3048C56.4802 54.6488 56.5405 53.9739 56.5405 53.2851C56.5405 46.8411 51.2634 41.6172 44.7539 41.6172C39.9146 41.6172 35.7564 44.5043 33.9412 48.6334C32.4706 47.3765 30.5624 46.6177 28.4771 46.6177C23.8274 46.6177 20.0581 50.3905 20.0581 55.0445C20.0581 55.3036 20.0698 55.5601 20.0927 55.8133C17.8563 56.8977 16.3164 59.173 16.3164 61.8044C16.3164 65.4867 19.3318 68.4718 23.0516 68.4718H54.8567C58.5764 68.4718 61.5919 65.4867 61.5919 61.8044C61.5919 58.6353 59.3583 55.9826 56.3645 55.3048Z" fill="url(#paint2_linear_44_430)"/>
</g>
</g>
<defs>
<filter id="filter0_i_44_430" x="16.3164" y="4" width="36.398" height="23.7477" filterUnits="userSpaceOnUse" color-interpolation-filters="sRGB">
<feFlood flood-opacity="0" result="BackgroundImageFix"/>
<feBlend mode="normal" in="SourceGraphic" in2="BackgroundImageFix" result="shape"/>
<feColorMatrix in="SourceAlpha" type="matrix" values="0 0 0 0 0 0 0 0 0 0 0 0 0 0 0 0 0 0 127 0" result="hardAlpha"/>
<feOffset dy="2.44133"/>
<feGaussianBlur stdDeviation="1.10969"/>
<feComposite in2="hardAlpha" operator="arithmetic" k2="-1" k3="1"/>
<feColorMatrix type="matrix" values="0 0 0 0 1 0 0 0 0 1 0 0 0 0 1 0 0 0 1 0"/>
<feBlend mode="normal" in2="shape" result="effect1_innerShadow_44_430"/>
</filter>
<filter id="filter1_f_44_430" x="0.11358" y="0.257257" width="67.7082" height="71.8444" filterUnits="userSpaceOnUse" color-interpolation-filters="sRGB">
<feFlood flood-opacity="0" result="BackgroundImageFix"/>
<feBlend mode="normal" in="SourceGraphic" in2="BackgroundImageFix" result="shape"/>
<feGaussianBlur stdDeviation="5.88138" result="effect1_foregroundBlur_44_430"/>
</filter>
<filter id="filter2_i_44_430" x="13.2895" y="15.2031" width="40.3314" height="44.9947" filterUnits="userSpaceOnUse" color-interpolation-filters="sRGB">
<feFlood flood-opacity="0" result="BackgroundImageFix"/>
<feBlend mode="normal" in="SourceGraphic" in2="BackgroundImageFix" result="shape"/>
<feColorMatrix in="SourceAlpha" type="matrix" values="0 0 0 0 0 0 0 0 0 0 0 0 0 0 0 0 0 0 127 0" result="hardAlpha"/>
<feOffset dy="0.887756"/>
<feGaussianBlur stdDeviation="0.887756"/>
<feComposite in2="hardAlpha" operator="arithmetic" k2="-1" k3="1"/>
<feColorMatrix type="matrix" values="0 0 0 0 1 0 0 0 0 1 0 0 0 0 1 0 0 0 0.55 0"/>
<feBlend mode="normal" in2="shape" result="effect1_innerShadow_44_430"/>
</filter>
<filter id="filter3_b_44_430" x="10.324" y="35.6248" width="57.2602" height="38.8392" filterUnits="userSpaceOnUse" color-interpolation-filters="sRGB">
<feFlood flood-opacity="0" result="BackgroundImageFix"/>
<feGaussianBlur in="BackgroundImageFix" stdDeviation="2.99618"/>
<feComposite in2="SourceAlpha" operator="in" result="effect1_backgroundBlur_44_430"/>
<feBlend mode="normal" in="SourceGraphic" in2="effect1_backgroundBlur_44_430" result="shape"/>
</filter>
<filter id="filter4_i_44_430" x="16.3163" y="41.6172" width="45.2755" height="29.0739" filterUnits="userSpaceOnUse" color-interpolation-filters="sRGB">
<feFlood flood-opacity="0" result="BackgroundImageFix"/>
<feBlend mode="normal" in="SourceGraphic" in2="BackgroundImageFix" result="shape"/>
<feColorMatrix in="SourceAlpha" type="matrix" values="0 0 0 0 0 0 0 0 0 0 0 0 0 0 0 0 0 0 127 0" result="hardAlpha"/>
<feOffset dy="2.44133"/>
<feGaussianBlur stdDeviation="1.10969"/>
<feComposite in2="hardAlpha" operator="arithmetic" k2="-1" k3="1"/>
<feColorMatrix type="matrix" values="0 0 0 0 1 0 0 0 0 1 0 0 0 0 1 0 0 0 1 0"/>
<feBlend mode="normal" in2="shape" result="effect1_innerShadow_44_430"/>
</filter>
<linearGradient id="paint0_linear_44_430" x1="18.6314" y1="23.6059" x2="55.2541" y2="-3.88169" gradientUnits="userSpaceOnUse">
<stop stop-color="white"/>
<stop offset="1" stop-color="white" stop-opacity="0.58"/>
</linearGradient>
<linearGradient id="paint1_linear_44_430" x1="34.6263" y1="11.5465" x2="26.5643" y2="60.3621" gradientUnits="userSpaceOnUse">
<stop stop-color="#FFEE94"/>
<stop offset="1" stop-color="#FF9900"/>
</linearGradient>
<linearGradient id="paint2_linear_44_430" x1="19.1961" y1="66.0741" x2="64.8438" y2="31.9093" gradientUnits="userSpaceOnUse">
<stop stop-color="white"/>
<stop offset="1" stop-color="white" stop-opacity="0.58"/>
</linearGradient>
</defs>
</svg>
