<svg width="27" height="33" viewBox="0 0 27 33" fill="none" xmlns="http://www.w3.org/2000/svg">
<path d="M13.5976 27.9347C13.9263 27.9073 14.2072 27.7775 14.4406 27.5453C14.6728 27.3119 14.7889 27.0309 14.7889 26.7023C14.7889 26.3189 14.6657 26.011 14.4192 25.7788C14.1727 25.5455 13.8578 25.4425 13.4744 25.4699C12.3515 25.552 11.1602 25.2442 9.90037 24.5464C8.64057 23.8475 7.84635 22.5806 7.5177 20.7456C7.46293 20.4444 7.31888 20.1979 7.08554 20.0062C6.8533 19.8145 6.58655 19.7186 6.28529 19.7186C5.90187 19.7186 5.58692 19.8621 5.34044 20.1491C5.09396 20.4372 5.0118 20.773 5.09396 21.1564C5.55954 23.6486 6.65502 25.4288 8.38039 26.4969C10.1058 27.565 11.8448 28.0443 13.5976 27.9347ZM13.1457 32.8644C9.39371 32.8644 6.26503 31.5772 3.75967 29.0028C1.25321 26.4284 -1.52588e-05 23.2241 -1.52588e-05 19.39C-1.52588e-05 16.6513 1.08889 13.6732 3.2667 10.4558C5.44342 7.23728 8.73642 3.75201 13.1457 0C17.555 3.75201 20.8486 7.23728 23.0264 10.4558C25.2031 13.6732 26.2915 16.6513 26.2915 19.39C26.2915 23.2241 25.0382 26.4284 22.5318 29.0028C20.0264 31.5772 16.8977 32.8644 13.1457 32.8644Z" fill="#ABABAB"/>
</svg>
