<svg width="89" height="86" viewBox="0 0 89 86" fill="none" xmlns="http://www.w3.org/2000/svg">
<g filter="url(#filter0_f_44_379)">
<rect x="17.7577" y="18" width="53.2653" height="50.1582" rx="20.8623" fill="#FFEF9A"/>
</g>
<g filter="url(#filter1_i_44_379)">
<path d="M67.472 47.0738C67.472 59.8215 57.138 70.1555 44.3903 70.1555C31.6427 70.1555 21.3087 59.8215 21.3087 47.0738C21.3087 34.3262 31.6427 23.9922 44.3903 23.9922C57.138 23.9922 67.472 34.3262 67.472 47.0738Z" fill="url(#paint0_linear_44_379)"/>
</g>
<g filter="url(#filter2_b_44_379)">
<g filter="url(#filter3_i_44_379)">
<path d="M57.557 58.977C57.7175 58.0661 57.8011 57.1291 57.8011 56.1727C57.8011 47.2256 50.4805 39.9727 41.4501 39.9727C34.7367 39.9727 28.9683 43.9811 26.4502 49.7142C24.4101 47.9691 21.7629 46.9155 18.8701 46.9155C12.4198 46.9155 7.1908 52.1538 7.1908 58.6155C7.1908 58.9753 7.20702 59.3314 7.23876 59.6829C4.13627 61.1885 2 64.3477 2 68.0012C2 73.1138 6.18321 77.2584 11.3434 77.2584H55.4653C60.6255 77.2584 64.8087 73.1138 64.8087 68.0012C64.8087 63.6011 61.7102 59.9181 57.557 58.977Z" fill="url(#paint1_linear_44_379)"/>
</g>
</g>
<defs>
<filter id="filter0_f_44_379" x="0.668362" y="0.910702" width="87.4439" height="84.3368" filterUnits="userSpaceOnUse" color-interpolation-filters="sRGB">
<feFlood flood-opacity="0" result="BackgroundImageFix"/>
<feBlend mode="normal" in="SourceGraphic" in2="BackgroundImageFix" result="shape"/>
<feGaussianBlur stdDeviation="8.54465" result="effect1_foregroundBlur_44_379"/>
</filter>
<filter id="filter1_i_44_379" x="21.3087" y="23.9922" width="46.1633" height="47.2728" filterUnits="userSpaceOnUse" color-interpolation-filters="sRGB">
<feFlood flood-opacity="0" result="BackgroundImageFix"/>
<feBlend mode="normal" in="SourceGraphic" in2="BackgroundImageFix" result="shape"/>
<feColorMatrix in="SourceAlpha" type="matrix" values="0 0 0 0 0 0 0 0 0 0 0 0 0 0 0 0 0 0 127 0" result="hardAlpha"/>
<feOffset dy="1.10969"/>
<feGaussianBlur stdDeviation="1.99745"/>
<feComposite in2="hardAlpha" operator="arithmetic" k2="-1" k3="1"/>
<feColorMatrix type="matrix" values="0 0 0 0 1 0 0 0 0 1 0 0 0 0 1 0 0 0 0.81 0"/>
<feBlend mode="normal" in2="shape" result="effect1_innerShadow_44_379"/>
</filter>
<filter id="filter2_b_44_379" x="-3.99235" y="33.9798" width="74.7934" height="49.2708" filterUnits="userSpaceOnUse" color-interpolation-filters="sRGB">
<feFlood flood-opacity="0" result="BackgroundImageFix"/>
<feGaussianBlur in="BackgroundImageFix" stdDeviation="2.99618"/>
<feComposite in2="SourceAlpha" operator="in" result="effect1_backgroundBlur_44_379"/>
<feBlend mode="normal" in="SourceGraphic" in2="effect1_backgroundBlur_44_379" result="shape"/>
</filter>
<filter id="filter3_i_44_379" x="2" y="39.9727" width="62.8087" height="39.505" filterUnits="userSpaceOnUse" color-interpolation-filters="sRGB">
<feFlood flood-opacity="0" result="BackgroundImageFix"/>
<feBlend mode="normal" in="SourceGraphic" in2="BackgroundImageFix" result="shape"/>
<feColorMatrix in="SourceAlpha" type="matrix" values="0 0 0 0 0 0 0 0 0 0 0 0 0 0 0 0 0 0 127 0" result="hardAlpha"/>
<feOffset dy="2.44133"/>
<feGaussianBlur stdDeviation="1.10969"/>
<feComposite in2="hardAlpha" operator="arithmetic" k2="-1" k3="1"/>
<feColorMatrix type="matrix" values="0 0 0 0 1 0 0 0 0 1 0 0 0 0 1 0 0 0 1 0"/>
<feBlend mode="normal" in2="shape" result="effect1_innerShadow_44_379"/>
</filter>
<linearGradient id="paint0_linear_44_379" x1="40.8843" y1="59.6373" x2="59.8755" y2="26.3296" gradientUnits="userSpaceOnUse">
<stop stop-color="#FF9900"/>
<stop offset="1" stop-color="#FFEE94"/>
</linearGradient>
<linearGradient id="paint1_linear_44_379" x1="5.9949" y1="73.9293" x2="69.3585" y2="26.5453" gradientUnits="userSpaceOnUse">
<stop stop-color="white"/>
<stop offset="1" stop-color="white" stop-opacity="0.58"/>
</linearGradient>
</defs>
</svg>
