<svg width="33" height="33" viewBox="0 0 33 33" fill="none" xmlns="http://www.w3.org/2000/svg">
<path d="M25.85 16.5C25.85 18.3493 25.3016 20.157 24.2742 21.6946C23.2468 23.2322 21.7866 24.4306 20.0781 25.1383C18.3696 25.846 16.4896 26.0311 14.6759 25.6703C12.8622 25.3096 11.1962 24.4191 9.88855 23.1115C8.58093 21.8038 7.69043 20.1378 7.32966 18.3241C6.96889 16.5104 7.15405 14.6304 7.86173 12.9219C8.56941 11.2134 9.76782 9.75315 11.3054 8.72576C12.843 7.69837 14.6507 7.15 16.5 7.15C18.9787 7.15364 21.3548 8.13989 23.1074 9.89257C24.8601 11.6452 25.8464 14.0213 25.85 16.5ZM16.5 4.95C16.7917 4.95 17.0715 4.83411 17.2778 4.62782C17.4841 4.42153 17.6 4.14174 17.6 3.85V1.1C17.6 0.808262 17.4841 0.528472 17.2778 0.322183C17.0715 0.115892 16.7917 0 16.5 0C16.2083 0 15.9285 0.115892 15.7222 0.322183C15.5159 0.528472 15.4 0.808262 15.4 1.1V3.85C15.4 4.14174 15.5159 4.42153 15.7222 4.62782C15.9285 4.83411 16.2083 4.95 16.5 4.95ZM6.77875 8.3325C6.98669 8.53492 7.26543 8.64819 7.55563 8.64819C7.84582 8.64819 8.12456 8.53492 8.3325 8.3325C8.53821 8.12629 8.65374 7.8469 8.65374 7.55563C8.65374 7.26435 8.53821 6.98496 8.3325 6.77875L6.39375 4.82625C6.29512 4.70608 6.17243 4.60789 6.03356 4.53799C5.8947 4.46809 5.74274 4.42805 5.58746 4.42042C5.43219 4.41279 5.27703 4.43776 5.13199 4.49371C4.98694 4.54966 4.85522 4.63536 4.74529 4.74529C4.63536 4.85522 4.54966 4.98694 4.49371 5.13199C4.43776 5.27703 4.41279 5.43219 4.42042 5.58746C4.42805 5.74274 4.46809 5.8947 4.53799 6.03356C4.60789 6.17243 4.70608 6.29512 4.82625 6.39375L6.77875 8.3325ZM4.95 16.5C4.95 16.2083 4.83411 15.9285 4.62782 15.7222C4.42153 15.5159 4.14174 15.4 3.85 15.4H1.1C0.808262 15.4 0.528472 15.5159 0.322183 15.7222C0.115892 15.9285 0 16.2083 0 16.5C0 16.7917 0.115892 17.0715 0.322183 17.2778C0.528472 17.4841 0.808262 17.6 1.1 17.6H3.85C4.14174 17.6 4.42153 17.4841 4.62782 17.2778C4.83411 17.0715 4.95 16.7917 4.95 16.5ZM6.77875 24.6675L4.82625 26.6063C4.61969 26.8148 4.50381 27.0965 4.50381 27.39C4.50381 27.6835 4.61969 27.9652 4.82625 28.1737C5.0389 28.3732 5.31845 28.486 5.61 28.49C5.90209 28.4888 6.1826 28.3756 6.39375 28.1737L8.3325 26.2213C8.5221 26.012 8.62396 25.7379 8.61701 25.4556C8.61006 25.1733 8.49483 24.9045 8.29516 24.7048C8.0955 24.5052 7.8267 24.3899 7.54442 24.383C7.26214 24.376 6.988 24.4779 6.77875 24.6675ZM16.5 28.05C16.2083 28.05 15.9285 28.1659 15.7222 28.3722C15.5159 28.5785 15.4 28.8583 15.4 29.15V31.9C15.4 32.1917 15.5159 32.4715 15.7222 32.6778C15.9285 32.8841 16.2083 33 16.5 33C16.7917 33 17.0715 32.8841 17.2778 32.6778C17.4841 32.4715 17.6 32.1917 17.6 31.9V29.15C17.6 28.8583 17.4841 28.5785 17.2778 28.3722C17.0715 28.1659 16.7917 28.05 16.5 28.05ZM26.2213 24.6675C26.012 24.4779 25.7379 24.376 25.4556 24.383C25.1733 24.3899 24.9045 24.5052 24.7048 24.7048C24.5052 24.9045 24.3899 25.1733 24.383 25.4556C24.376 25.7379 24.4779 26.012 24.6675 26.2213L26.6063 28.1737C26.8174 28.3756 27.0979 28.4888 27.39 28.49C27.6816 28.486 27.9611 28.3732 28.1737 28.1737C28.3803 27.9652 28.4962 27.6835 28.4962 27.39C28.4962 27.0965 28.3803 26.8148 28.1737 26.6063L26.2213 24.6675ZM31.9 15.4H29.15C28.8583 15.4 28.5785 15.5159 28.3722 15.7222C28.1659 15.9285 28.05 16.2083 28.05 16.5C28.05 16.7917 28.1659 17.0715 28.3722 17.2778C28.5785 17.4841 28.8583 17.6 29.15 17.6H31.9C32.1917 17.6 32.4715 17.4841 32.6778 17.2778C32.8841 17.0715 33 16.7917 33 16.5C33 16.2083 32.8841 15.9285 32.6778 15.7222C32.4715 15.5159 32.1917 15.4 31.9 15.4ZM25.4513 8.64875C25.5942 8.65001 25.736 8.62269 25.8682 8.56838C26.0004 8.51407 26.1205 8.43387 26.2213 8.3325L28.1737 6.39375C28.3492 6.18002 28.4388 5.9087 28.4252 5.63254C28.4117 5.35638 28.2959 5.09514 28.1004 4.89963C27.9049 4.70412 27.6436 4.58833 27.3675 4.57476C27.0913 4.5612 26.82 4.65084 26.6063 4.82625L24.6675 6.77875C24.4618 6.98496 24.3463 7.26435 24.3463 7.55563C24.3463 7.8469 24.4618 8.12629 24.6675 8.3325C24.7699 8.43555 24.8922 8.51672 25.0269 8.57108C25.1616 8.62544 25.306 8.65187 25.4513 8.64875Z" fill="#ABABAB"/>
</svg>
