<svg width="17" height="34" viewBox="0 0 17 34" fill="none" xmlns="http://www.w3.org/2000/svg">
<path d="M9.70747 22.063V12.1333H7.28086V22.063C6.47133 22.3492 5.78904 22.9124 5.35458 23.653C4.92013 24.3936 4.76148 25.2639 4.90668 26.1102C5.05187 26.9565 5.49157 27.7242 6.14805 28.2776C6.80453 28.8311 7.63552 29.1346 8.49416 29.1346C9.3528 29.1346 10.1838 28.8311 10.8403 28.2776C11.4968 27.7242 11.9365 26.9565 12.0816 26.1102C12.2268 25.2639 12.0682 24.3936 11.6337 23.653C11.1993 22.9124 10.517 22.3492 9.70747 22.063Z" fill="#ABABAB"/>
<path d="M8.49417 33.9725C6.82221 33.9743 5.18696 33.4822 3.79377 32.5578C2.40057 31.6335 1.31153 30.3181 0.663413 28.7768C0.0152921 27.2356 -0.163023 25.5372 0.15086 23.895C0.464743 22.2528 1.25683 20.7399 2.42766 19.5463V6.06651C2.42766 4.45757 3.06681 2.91453 4.2045 1.77684C5.34219 0.639148 6.88523 0 8.49417 0C10.1031 0 11.6462 0.639148 12.7838 1.77684C13.9215 2.91453 14.5607 4.45757 14.5607 6.06651V19.5463C15.7315 20.7399 16.5236 22.2528 16.8375 23.895C17.1514 25.5372 16.9731 27.2356 16.3249 28.7768C15.6768 30.3181 14.5878 31.6335 13.1946 32.5578C11.8014 33.4822 10.1661 33.9743 8.49417 33.9725ZM8.49417 2.4266C7.5291 2.42757 6.60384 2.81137 5.92143 3.49377C5.23903 4.17618 4.85523 5.10144 4.85426 6.06651V20.6055L4.45145 20.9683C3.53526 21.7872 2.88934 22.865 2.5992 24.059C2.30905 25.2531 2.38836 26.5071 2.82662 27.6551C3.26488 28.8031 4.04143 29.7909 5.05348 30.4879C6.06553 31.1848 7.26537 31.558 8.49417 31.558C9.72298 31.558 10.9228 31.1848 11.9349 30.4879C12.9469 29.7909 13.7235 28.8031 14.1617 27.6551C14.6 26.5071 14.6793 25.2531 14.3891 24.059C14.099 22.865 13.4531 21.7872 12.5369 20.9683L12.1341 20.6055V6.06651C12.1331 5.10144 11.7493 4.17618 11.0669 3.49377C10.3845 2.81137 9.45924 2.42757 8.49417 2.4266Z" fill="#ABABAB"/>
</svg>
