<svg width="41" height="32" viewBox="0 0 41 32" fill="none" xmlns="http://www.w3.org/2000/svg">
<path d="M1.43831 11.5065C1.05685 11.5065 0.691007 11.355 0.421272 11.0852C0.151536 10.8155 0 10.4496 0 10.0682C0 9.68672 0.151536 9.32088 0.421272 9.05114C0.691007 8.78141 1.05685 8.62987 1.43831 8.62987H18.6981C19.2232 8.62948 19.7382 8.48535 20.1872 8.21312C20.6363 7.94088 21.0022 7.55092 21.2454 7.08551C21.4886 6.62011 21.5998 6.09701 21.5669 5.57292C21.5339 5.04883 21.3582 4.54375 21.0587 4.11244C20.7591 3.68112 20.3473 3.34002 19.8677 3.12611C19.3881 2.9122 18.8591 2.83365 18.3381 2.89897C17.817 2.96428 17.3238 3.17098 16.9119 3.49665C16.4999 3.82231 16.185 4.25452 16.0012 4.74643C15.944 4.9333 15.8492 5.10653 15.7228 5.25557C15.5964 5.4046 15.4409 5.5263 15.2659 5.61325C15.0908 5.70019 14.8999 5.75055 14.7048 5.76126C14.5096 5.77196 14.3143 5.74278 14.1309 5.6755C13.9474 5.60822 13.7795 5.50425 13.6375 5.36994C13.4956 5.23563 13.3825 5.07379 13.3051 4.89431C13.2278 4.71482 13.1878 4.52146 13.1877 4.32602C13.1876 4.13059 13.2273 3.93717 13.3044 3.75759C13.6691 2.77153 14.297 1.90425 15.1199 1.24995C15.9428 0.59565 16.9293 0.179354 17.9722 0.0462779C19.0151 -0.0867982 20.0745 0.0684339 21.0353 0.495113C21.9962 0.921792 22.8218 1.60361 23.4224 2.46649C24.023 3.32938 24.3757 4.34034 24.4422 5.38958C24.5086 6.43882 24.2863 7.4862 23.7994 8.41797C23.3124 9.34974 22.5794 10.1303 21.6801 10.6748C20.7807 11.2193 19.7494 11.5069 18.6981 11.5065H1.43831ZM24.4513 20.1364H4.31494C3.93347 20.1364 3.56763 20.2879 3.2979 20.5576C3.02816 20.8274 2.87662 21.1932 2.87662 21.5747C2.87662 21.9561 3.02816 22.322 3.2979 22.5917C3.56763 22.8615 3.93347 23.013 4.31494 23.013H24.4513C24.9764 23.0134 25.4914 23.1575 25.9405 23.4297C26.3895 23.702 26.7555 24.0919 26.9987 24.5573C27.2419 25.0228 27.353 25.5459 27.3201 26.0699C27.2872 26.594 27.1114 27.0991 26.8119 27.5304C26.5124 27.9617 26.1005 28.3028 25.6209 28.5168C25.1414 28.7307 24.6124 28.8092 24.0913 28.7439C23.5703 28.6786 23.0771 28.4719 22.6651 28.1462C22.2532 27.8206 21.9383 27.3883 21.7545 26.8964C21.6972 26.7096 21.6025 26.5363 21.4761 26.3873C21.3496 26.2383 21.1941 26.1166 21.0191 26.0296C20.8441 25.9427 20.6532 25.8923 20.458 25.8816C20.2629 25.8709 20.0676 25.9001 19.8841 25.9674C19.7006 26.0346 19.5328 26.1386 19.3908 26.2729C19.2488 26.4072 19.1357 26.5691 19.0584 26.7486C18.981 26.928 18.9411 27.1214 18.9409 27.3168C18.9408 27.5123 18.9805 27.7057 19.0576 27.8853C19.4223 28.8713 20.0502 29.7386 20.8731 30.3929C21.6961 31.0472 22.6826 31.4635 23.7254 31.5966C24.7683 31.7297 25.8277 31.5744 26.7886 31.1477C27.7494 30.7211 28.575 30.0393 29.1756 29.1764C29.7763 28.3135 30.129 27.3025 30.1954 26.2533C30.2619 25.204 30.0395 24.1567 29.5526 23.2249C29.0657 22.2931 28.3327 21.5126 27.4333 20.9681C26.534 20.4236 25.5026 20.1359 24.4513 20.1364ZM34.5195 5.75325C33.3449 5.75628 32.1992 6.11764 31.2354 6.78908C30.2716 7.46051 29.5356 8.41005 29.1258 9.51084C29.0487 9.69042 29.009 9.88383 29.0091 10.0793C29.0092 10.2747 29.0492 10.4681 29.1265 10.6476C29.2039 10.827 29.317 10.9889 29.459 11.1232C29.6009 11.2575 29.7688 11.3615 29.9523 11.4287C30.1358 11.496 30.3311 11.5252 30.5262 11.5145C30.7213 11.5038 30.9123 11.4534 31.0873 11.3665C31.2623 11.2796 31.4178 11.1578 31.5442 11.0088C31.6707 10.8598 31.7654 10.6865 31.8226 10.4997C32.0064 10.0078 32.3214 9.57556 32.7333 9.24989C33.1452 8.92422 33.6385 8.71753 34.1595 8.65221C34.6806 8.5869 35.2095 8.66545 35.6891 8.87936C36.1687 9.09326 36.5806 9.43437 36.8801 9.86568C37.1796 10.297 37.3554 10.8021 37.3883 11.3262C37.4212 11.8503 37.31 12.3734 37.0668 12.8388C36.8236 13.3042 36.4577 13.6941 36.0086 13.9664C35.5596 14.2386 35.0446 14.3827 34.5195 14.3831H2.87662C2.49516 14.3831 2.12932 14.5347 1.85958 14.8044C1.58985 15.0741 1.43831 15.44 1.43831 15.8214C1.43831 16.2029 1.58985 16.5687 1.85958 16.8385C2.12932 17.1082 2.49516 17.2597 2.87662 17.2597H34.5195C36.0453 17.2597 37.5087 16.6536 38.5876 15.5747C39.6666 14.4957 40.2727 13.0324 40.2727 11.5065C40.2727 9.98064 39.6666 8.51728 38.5876 7.43834C37.5087 6.35939 36.0453 5.75325 34.5195 5.75325Z" fill="#ABABAB"/>
</svg>
